<svg id="svg2" xmlns="http://www.w3.org/2000/svg" viewBox="0 0 600 600"><defs><style>.cls-1{fill:#fcd87c;stroke:#aa7707;stroke-linecap:round;stroke-linejoin:round;stroke-width:19.21px;}.cls-2{fill:#e679ac;}.cls-3{fill:#ed0303;}.cls-4{fill:#fff;}.cls-5{fill:#07a1e5;}.cls-6{fill:#f2bc36;}</style></defs><g id="layer1"><path id="path3068" class="cls-1" d="M333.72,403.31c40.32-15,61.37-43.81,61.37-93.44S353.26,216.5,301,216.41c-55.15-.09-96.75,43.64-96.09,93.46s24.43,82.95,62.45,94.94L200,570.52C109.85,547.18,18.16,440.82,18.16,309.87A280.14,280.14,0,0,1,299,29c156.21,0,282.84,125.74,282.84,280.85,0,133-90.82,237.86-182.9,261.11Z"/></g><path class="cls-2" d="M535.71,298.27c-3.07-19.2-6.31-38.44-8.16-57.81-1.53-16.08-2-33.5-13.41-46.24-8.39-9.36-18.56-16.32-28.59-23.76-25.23-18.73-42.7-40.9-61-66.1C404,76.14,379,54.34,341.76,58.73c-18.58,2.19-37.15,6.61-55.9,3.32-13.95-2.44-28.23-7-42.48-7-33.15,0-43.45,35.87-60.81,58-10,12.77-23.17,22.61-39.3,26.16-16.3,3.58-35.84,2.92-49.09,14.57C81.24,165.1,72.09,180,69.19,197c2.29,20.29-2.79,42.93-9,62.68-6.52,20.66-15.81,42.51-14.6,64.54a68.43,68.43,0,0,0,10.67,33.29c6.81,10.73,16.45,19.71,22.19,31.09,11.4,22.65,13.53,47.69,22.16,71.22,9.5,25.91,30.56,31.74,54.08,41.47,16.38,6.77,29.64,15.78,40.75,28,10.78-22,19.55-44.94,31.75-66.27,6.47-11.31,11.69-22.33,15.32-34.82a80.92,80.92,0,0,1,5.09-14.06,114.9,114.9,0,1,1,167.13-113.6q.57,5.71.58,11.56A114.89,114.89,0,0,1,352,414.67c11.67,14.59,14.63,35.12,20.79,52.28,3.81,10.63,9.58,20.51,13.78,31a112.8,112.8,0,0,1,5.95,19.82c3.84.18,7.7.3,11.6.27,20.47-.13,39.32-5.69,51.67-23,9.75-13.68,16.42-29,24.86-43.47,18.5-31.74,53.59-53.66,59.81-92.08C543.76,339.28,538.9,318.2,535.71,298.27Z"/><g id="Layer_2" data-name="Layer 2"><path class="cls-3" d="M156.85,323.21q-4.93-12.72-9.86-25.46c-3.29-8.5-17.14-4.8-13.81,3.81s6.57,17,9.85,25.45S160.18,331.82,156.85,323.21Z"/><path class="cls-4" d="M160.54,385.38a7.34,7.34,0,0,0,0-10.13c-2.63-2.63-7.53-2.89-10.13,0A89.38,89.38,0,0,1,137,387.56c-3.12,2.28-4.67,6.21-2.57,9.8,1.8,3.07,6.65,4.86,9.79,2.57A106.47,106.47,0,0,0,160.54,385.38Z"/><path class="cls-5" d="M210.09,427.49c-.57-9.15-14.9-9.22-14.32,0a55.45,55.45,0,0,0,5.68,21.38c1.71,3.47,6.63,4.42,9.8,2.56,3.54-2.07,4.28-6.31,2.57-9.79A37.29,37.29,0,0,1,210.09,427.49Z"/><path class="cls-6" d="M154.69,464.34c-1.65,3.49-1,7.72,2.57,9.79,3.11,1.82,8.14.95,9.8-2.56a27.63,27.63,0,0,1,8.32-10.69c3-2.46,2.55-7.58,0-10.13-2.95-2.95-7.14-2.46-10.13,0A39.83,39.83,0,0,0,154.69,464.34Z"/><path class="cls-3" d="M420.74,465.62a28.31,28.31,0,0,1-2.81-1.78c-.17-.16-1-.84-1-.84-.45-.4-.88-.82-1.3-1.25s-.81-.88-1.21-1.33l-.29-.34a1.55,1.55,0,0,0-.14-.2,33.1,33.1,0,0,1-2-3.39c-1.79-3.43-6.57-4.46-9.8-2.57a7.29,7.29,0,0,0-2.57,9.8A35.27,35.27,0,0,0,413.51,478a7.16,7.16,0,0,0,7.23-12.37Z"/><path class="cls-6" d="M459.53,372.76A75.19,75.19,0,0,0,451,400.48c-.43,3.88,3.61,7.13,7.16,7.16,4.23.05,6.73-3.33,7.16-7.16A56.56,56.56,0,0,1,471.9,380C476.28,371.88,463.92,364.64,459.53,372.76Z"/><path class="cls-3" d="M468.61,306.63l-16.36,10.5c-7.73,5-.56,17.37,7.23,12.37L475.84,319C483.57,314,476.39,301.63,468.61,306.63Z"/><path class="cls-4" d="M506.55,282.49c7.9,4.8,15.11-7.58,7.23-12.36l-16-9.73c-7.9-4.8-15.1,7.58-7.23,12.37Z"/><path class="cls-6" d="M423.2,159.16c-4-1.11-7.44,1.37-8.81,5a113.78,113.78,0,0,0-5.82,21.45c-.65,3.81,1,7.71,5,8.81,3.44,1,8.16-1.17,8.81-5A114.54,114.54,0,0,1,428.2,168C429.57,164.35,426.68,160.12,423.2,159.16Z"/><path class="cls-5" d="M455.43,225.69l19-11.94c7.79-4.89.61-17.28-7.23-12.36l-19,11.93C440.42,218.21,447.6,230.61,455.43,225.69Z"/><path class="cls-3" d="M308.15,107.4c-2.71-8.78-16.54-5-13.82,3.81q2.7,8.76,5.41,17.52c2.71,8.78,16.54,5,13.81-3.81Z"/><path class="cls-5" d="M335.36,147.72c-2.9,2.55-2.6,7.52,0,10.13,2.89,2.88,7.22,2.56,10.13,0l14.39-12.64c2.91-2.56,2.61-7.52,0-10.13-2.89-2.89-7.22-2.56-10.13,0Z"/><path class="cls-4" d="M201.22,136.85q3.24,8.13,6.49,16.28c1.43,3.59,4.78,6.11,8.81,5,3.41-.94,6.44-5.2,5-8.81Q218.28,141.17,215,133c-1.43-3.59-4.79-6.11-8.81-5C202.81,129,199.78,133.23,201.22,136.85Z"/><path class="cls-6" d="M254.34,177.38A47.17,47.17,0,0,1,263.08,159c2.41-3,2.95-7.18,0-10.13-2.5-2.5-7.7-3-10.13,0a63.42,63.42,0,0,0-12.42,24.73C238.35,182.52,252.16,186.35,254.34,177.38Z"/><path class="cls-3" d="M138.45,156.69c-2.61,2.61-2.91,7.55,0,10.13a75.84,75.84,0,0,0,16,11,7.34,7.34,0,0,0,9.8-2.57c1.86-3.19.9-8.05-2.57-9.8a61.31,61.31,0,0,1-13.09-8.75A7.34,7.34,0,0,0,138.45,156.69Z"/><path class="cls-5" d="M182,218.19a14.63,14.63,0,0,1,10.4-7.59c3.79-.8,6-5.24,5-8.81a7.3,7.3,0,0,0-8.81-5,28.75,28.75,0,0,0-19,14.17C165.21,219,177.57,226.28,182,218.19Z"/><path class="cls-4" d="M118.46,206.9c-2.11-3.09-6.4-4.76-9.8-2.57-3.08,2-4.83,6.49-2.57,9.8l6.52,9.58c2.11,3.09,6.4,4.77,9.8,2.57,3.08-2,4.83-6.49,2.57-9.8S120.63,210.1,118.46,206.9Z"/><path class="cls-6" d="M108.42,255.08,93.59,265.86c-3.13,2.27-4.66,6.22-2.57,9.8,1.8,3.08,6.65,4.85,9.8,2.57l14.83-10.78c3.12-2.28,4.66-6.23,2.57-9.8C116.41,254.56,111.56,252.79,108.42,255.08Z"/></g></svg>